<svg xmlns="http://www.w3.org/2000/svg" width="33" height="33" viewBox="0 0 33 33"><path fill="none" stroke="#FFF" stroke-miterlimit="10" d="M16.431 31.885c-8.396 0-15.228-6.832-15.228-15.228S8.035 1.429 16.431 1.429s15.228 6.832 15.228 15.228-6.832 15.228-15.228 15.228zm0-25.159c-5.476 0-9.931 4.455-9.931 9.931 0 5.476 4.455 9.931 9.931 9.931 5.476 0 9.931-4.455 9.931-9.931 0-5.477-4.455-9.931-9.931-9.931z"/><path fill="#4888C8" d="M6.88 22.591a11.184 11.184 0 0 1-1.705-5.935C5.175 10.44 10.214 5.4 16.43 5.4s11.255 5.039 11.255 11.256h2.648c0-7.679-6.225-13.904-13.904-13.904S2.527 8.978 2.527 16.657c0 2.694.779 5.201 2.106 7.331l2.247-1.397z"/></svg>