<svg xmlns="http://www.w3.org/2000/svg" width="32.202" height="31.646" viewBox="0 0 32.202 31.646"><path fill="#55B948" d="M15.942 2.074c-7.679 0-13.904 6.225-13.904 13.904s6.225 13.904 13.904 13.904 13.904-6.225 13.904-13.904S23.621 2.074 15.942 2.074zm0 25.16c-6.216 0-11.256-5.039-11.256-11.255 0-6.216 5.039-11.256 11.256-11.256 6.216 0 11.255 5.039 11.255 11.256 0 6.215-5.039 11.255-11.255 11.255z"/><path fill="none" stroke="#FFF" stroke-miterlimit="10" d="M15.942 31.206C7.546 31.206.714 24.374.714 15.978S7.546.75 15.942.75 31.17 7.582 31.17 15.978c0 8.397-6.832 15.228-15.228 15.228zm0-25.159c-5.476 0-9.931 4.455-9.931 9.931 0 5.477 4.455 9.931 9.931 9.931 5.476 0 9.931-4.455 9.931-9.931 0-5.476-4.455-9.931-9.931-9.931z"/></svg>