<svg xmlns="http://www.w3.org/2000/svg" width="32.658" height="32.763" viewBox="0 0 32.658 32.763"><path fill="none" stroke="#FFF" stroke-miterlimit="10" d="M16.143 31.885C7.747 31.885.915 25.053.915 16.657S7.747 1.429 16.143 1.429s15.228 6.832 15.228 15.228-6.832 15.228-15.228 15.228zm0-25.159c-5.477 0-9.931 4.455-9.931 9.931 0 5.477 4.455 9.931 9.931 9.931 5.476 0 9.931-4.455 9.931-9.931 0-5.477-4.455-9.931-9.931-9.931z"/><path fill="#F04E40" d="M22.888 25.652a11.191 11.191 0 0 1-6.745 2.261c-6.216 0-11.256-5.039-11.256-11.256 0-6.216 5.039-11.255 11.256-11.255 6.216 0 11.255 5.039 11.255 11.255h2.648c0-7.679-6.225-13.904-13.904-13.904S2.238 8.978 2.238 16.657s6.225 13.904 13.904 13.904c3.13 0 6.009-1.047 8.333-2.793l-1.587-2.116z"/></svg>