<?xml version="1.0" encoding="UTF-8"?>
<svg width="1300" height="1e3" version="1.1" xmlns="http://www.w3.org/2000/svg">
 <path d="m0 0h1300v1e3h-1300z" fill="#fff"/>
 <path d="m464.98 287-37 13 37 13 13 37 13-37 37-13-37-13-13-37zm175 220-37 13 37 13 13 37 13-37 37-13-37-13-13-37zm100-260-37 13 37 13 13 37 13-37 37-13-37-13-13-37zm-150-80-37 13 37 13 13 37 13-37 37-13-37-13-13-37zm-391.51 603.2h-14.193l-47.703 59.825-47.9-59.825h-14.193v136.46h14.784v-113.65l46.521 58.224h1.577l46.323-58.224v113.65h14.784zm130.03 0h-74.906v136.46h76.483v-13.205h-61.699v-49.02h58.348v-13.205h-58.348v-47.82h60.122zm47.041 0v136.46h14.784v-62.426h9.6589c14.39 0 21.88 5.4022 30.554 16.607 6.1107 8.0033 12.024 16.607 17.347 25.21l12.813 20.608h17.741c-6.7021-9.6039-9.6589-13.806-15.375-23.009-16.558-26.411-23.26-37.015-32.919-43.418 12.813-4.802 24.049-14.806 24.049-33.414 0-16.407-9.4618-36.615-44.352-36.615zm32.131 13.205c20.501 0 30.751 9.4038 30.751 23.61 0 15.606-11.63 24.01-30.751 24.01h-17.347v-47.62zm214.79-3.6015c-15.178-6.8028-31.342-11.405-47.9-11.405-36.073 0-70.964 27.411-70.964 70.429 0 38.016 28.78 69.629 71.949 69.629 16.952 0 33.511-4.4018 48.295-12.405v-16.207c-15.573 9.2038-30.948 14.406-48.689 14.406-31.539 0-55.785-22.809-55.785-55.423 0-32.413 24.443-56.223 56.377-56.223 16.952 0 31.539 5.002 46.718 13.405zm109.73 128.65c40.41 0 72.738-29.212 72.738-70.029 0-37.215-28.188-70.029-71.949-70.029-45.141 0-71.752 34.014-71.752 70.029 0 40.216 31.539 70.029 70.964 70.029zm-0.1971-14.206c-28.78 0-54.997-22.409-54.997-55.623 0-29.412 21.486-56.023 55.982-56.023 35.679 0 56.18 28.412 56.18 55.423 0 32.813-25.034 56.223-57.165 56.223zm183.84-116.85c-5.3223-3.2013-15.375-9.0037-30.357-9.0037-22.472 0-39.818 14.806-39.818 36.215 0 15.206 8.2791 26.611 30.948 37.415 27.597 13.205 30.16 21.409 30.16 30.012 0 8.2034-6.1108 22.809-25.034 22.809-14.981 0-27.794-10.004-34.89-17.207v18.408c10.447 7.403 22.669 12.405 35.285 12.405 17.544 0 39.227-11.605 39.227-37.415 0-20.208-9.4618-28.011-35.679-41.217-11.827-6.0025-25.429-13.005-25.429-26.811 0-5.002 3.7453-21.009 25.034-21.009 13.601 0 24.443 7.8032 30.554 12.405zm161.57-7.203h-14.784v74.03c0 3.4014 0 19.608-4.3367 28.612-4.928 10.404-16.952 22.009-37.65 22.009-11.827 0-23.457-4.0016-31.539-12.605-7.8849-8.4034-10.842-17.807-10.842-38.016v-74.03h-14.784v73.23c0 20.408 1.9712 30.212 9.0675 41.217 13.996 21.809 39.03 23.81 48.098 23.81 28.583 0 43.564-16.207 49.28-26.411 5.7165-10.004 7.4907-19.608 7.4907-38.616zm51.18 0v136.46h14.784v-62.426h9.6589c14.39 0 21.88 5.4022 30.554 16.607 6.1107 8.0033 12.024 16.607 17.347 25.21l12.813 20.608h17.741c-6.7022-9.6039-9.6589-13.806-15.376-23.009-16.558-26.411-23.26-37.015-32.919-43.418 12.813-4.802 24.049-14.806 24.049-33.414 0-16.407-9.4618-36.615-44.352-36.615zm32.131 13.205c20.501 0 30.751 9.4038 30.751 23.61 0 15.606-11.63 24.01-30.751 24.01h-17.347v-47.62z" fill="#3155a4"/>
 <path d="m17.977 730c230-80 460-120 685-140 200-20 400-10 580 15" fill="none" stroke="#009959" stroke-width="10"/>
</svg>
